<?xml version="1.0" encoding="utf-8"?>
<!-- Generator: Adobe Illustrator 16.0.0, SVG Export Plug-In . SVG Version: 6.00 Build 0)  -->
<!DOCTYPE svg PUBLIC "-//W3C//DTD SVG 1.1//EN" "http://www.w3.org/Graphics/SVG/1.1/DTD/svg11.dtd">
<svg version="1.1" id="Calque_1" xmlns="http://www.w3.org/2000/svg" xmlns:xlink="http://www.w3.org/1999/xlink" x="0px" y="0px"
	 width="150px" height="150px" viewBox="0 0 150 150" enable-background="new 0 0 150 150" xml:space="preserve">
<g id="Germany">
	<g>
		<g opacity="0.2">
			<g>
				<g>
					<path fill="#FFFFFF" d="M146.153,73.006c0,39.417-31.951,71.372-71.374,71.372c-39.427,0-71.374-31.955-71.374-71.372
						c0-39.425,31.947-71.375,71.374-71.375C114.202,1.631,146.153,33.581,146.153,73.006z"/>
					<path fill="#EDECEC" d="M146,73.006c0,39.332-31.883,71.218-71.22,71.218c-39.342,0-71.221-31.887-71.221-71.218
						c0-39.341,31.878-71.222,71.221-71.222C114.117,1.785,146,33.666,146,73.006z"/>
					<path fill="#E1E0DF" d="M145.847,73.006c0,39.248-31.814,71.065-71.067,71.065c-39.257,0-71.067-31.817-71.067-71.065
						c0-39.256,31.811-71.068,71.067-71.068C114.032,1.938,145.847,33.75,145.847,73.006z"/>
					<path fill="#D6D4D4" d="M145.692,73.005c0,39.163-31.745,70.913-70.914,70.913c-39.172,0-70.914-31.75-70.914-70.913
						c0-39.171,31.742-70.915,70.914-70.915C113.947,2.091,145.692,33.834,145.692,73.005z"/>
					<path fill="#CBC9C9" d="M145.54,73.006c0,39.078-31.678,70.76-70.761,70.76c-39.087,0-70.761-31.682-70.761-70.76
						c0-39.086,31.674-70.761,70.761-70.761C113.862,2.245,145.54,33.92,145.54,73.006z"/>
					<path fill="#C1BFBF" d="M145.387,73.006c0,38.993-31.609,70.606-70.607,70.606c-39.002,0-70.607-31.613-70.607-70.606
						c0-39.001,31.605-70.607,70.607-70.607C113.777,2.399,145.387,34.005,145.387,73.006z"/>
					<path fill="#B7B5B5" d="M145.232,73.006c0,38.908-31.539,70.453-70.453,70.453c-38.918,0-70.454-31.545-70.454-70.453
						c0-38.917,31.536-70.454,70.454-70.454C113.693,2.552,145.232,34.089,145.232,73.006z"/>
					<path fill="#AEABAB" d="M145.079,73.006c0,38.822-31.472,70.3-70.3,70.3c-38.833,0-70.301-31.478-70.301-70.3
						c0-38.832,31.468-70.301,70.301-70.301C113.607,2.705,145.079,34.174,145.079,73.006z"/>
					<path fill="#A5A2A2" d="M144.926,73.006c0,38.738-31.402,70.146-70.146,70.146c-38.748,0-70.147-31.408-70.147-70.146
						c0-38.747,31.399-70.147,70.147-70.147C113.523,2.859,144.926,34.259,144.926,73.006z"/>
					<path fill="#9C9999" d="M144.772,73.006c0,38.654-31.334,69.993-69.993,69.993c-38.662,0-69.993-31.339-69.993-69.993
						c0-38.662,31.331-69.993,69.993-69.993C113.438,3.013,144.772,34.344,144.772,73.006z"/>
					<path fill="#939090" d="M144.619,73.006c0,38.568-31.266,69.84-69.84,69.84c-38.578,0-69.84-31.271-69.84-69.84
						c0-38.577,31.262-69.84,69.84-69.84C113.354,3.166,144.619,34.429,144.619,73.006z"/>
					<path fill="#8B8888" d="M144.465,73.006c0,38.483-31.197,69.687-69.686,69.687c-38.493,0-69.687-31.203-69.687-69.687
						c0-38.493,31.194-69.687,69.687-69.687C113.268,3.319,144.465,34.513,144.465,73.006z"/>
					<path fill="#827F7F" d="M144.313,73.006c0,38.398-31.129,69.533-69.533,69.533c-38.408,0-69.533-31.135-69.533-69.533
						c0-38.408,31.125-69.533,69.533-69.533C113.184,3.473,144.313,34.598,144.313,73.006z"/>
					<path fill="#7B7777" d="M144.159,73.006c0,38.314-31.061,69.38-69.38,69.38c-38.323,0-69.38-31.065-69.38-69.38
						c0-38.323,31.057-69.379,69.38-69.379C113.099,3.627,144.159,34.683,144.159,73.006z"/>
					<path fill="#737070" d="M144.005,73.006c0,38.229-30.991,69.227-69.226,69.227c-38.238,0-69.227-30.998-69.227-69.227
						c0-38.238,30.988-69.226,69.227-69.226C113.014,3.78,144.005,34.768,144.005,73.006z"/>
					<path fill="#6B6868" d="M143.852,73.006c0,38.145-30.923,69.073-69.072,69.073c-38.154,0-69.073-30.929-69.073-69.073
						c0-38.154,30.919-69.073,69.073-69.073C112.929,3.933,143.852,34.852,143.852,73.006z"/>
					<path fill="#646161" d="M143.698,73.006c0,38.06-30.854,68.921-68.919,68.921c-38.068,0-68.92-30.861-68.92-68.921
						c0-38.068,30.852-68.919,68.92-68.919C112.844,4.087,143.698,34.938,143.698,73.006z"/>
					<path fill="#5D5B5A" d="M143.545,73.006c0,37.975-30.786,68.768-68.766,68.768c-37.984,0-68.767-30.793-68.767-68.768
						c0-37.984,30.783-68.766,68.767-68.766C112.759,4.24,143.545,35.022,143.545,73.006z"/>
					<path fill="#575454" d="M143.392,73.006c0,37.89-30.718,68.614-68.612,68.614c-37.898,0-68.613-30.725-68.613-68.614
						c0-37.899,30.715-68.612,68.613-68.612C112.674,4.394,143.392,35.106,143.392,73.006z"/>
					<path fill="#514E4D" d="M143.238,73.006c0,37.805-30.648,68.461-68.459,68.461c-37.814,0-68.46-30.656-68.46-68.461
						c0-37.814,30.646-68.458,68.46-68.458C112.59,4.547,143.238,35.191,143.238,73.006z"/>
					<path fill="#4A4847" d="M143.084,73.006c0,37.721-30.58,68.308-68.305,68.308c-37.729,0-68.306-30.587-68.306-68.308
						c0-37.729,30.577-68.305,68.306-68.305C112.504,4.701,143.084,35.276,143.084,73.006z"/>
					<path fill="#444241" d="M142.932,73.006c0,37.636-30.513,68.154-68.152,68.154c-37.644,0-68.153-30.519-68.153-68.154
						c0-37.645,30.509-68.151,68.153-68.151C112.419,4.854,142.932,35.361,142.932,73.006z"/>
					<path fill="#3E3C3C" d="M142.777,73.006c0,37.551-30.443,68.001-67.998,68.001c-37.56,0-68-30.45-68-68.001
						c0-37.56,30.44-67.998,68-67.998C112.334,5.008,142.777,35.446,142.777,73.006z"/>
					<path fill="#383736" d="M142.624,73.006c0,37.466-30.374,67.848-67.845,67.848c-37.475,0-67.846-30.382-67.846-67.848
						c0-37.476,30.372-67.845,67.846-67.845C112.25,5.161,142.624,35.53,142.624,73.006z"/>
					<path fill="#333131" d="M142.471,73.006c0,37.381-30.306,67.694-67.691,67.694c-37.39,0-67.693-30.313-67.693-67.694
						c0-37.391,30.303-67.691,67.693-67.691C112.165,5.315,142.471,35.615,142.471,73.006z"/>
					<path fill="#2D2C2B" d="M142.317,73.006c0,37.296-30.237,67.542-67.538,67.542c-37.305,0-67.54-30.246-67.54-67.542
						c0-37.306,30.235-67.537,67.54-67.537C112.08,5.469,142.317,35.7,142.317,73.006z"/>
					<path fill="#272626" d="M142.164,73.006c0,37.211-30.169,67.388-67.385,67.388c-37.22,0-67.386-30.177-67.386-67.388
						c0-37.221,30.167-67.384,67.386-67.384C111.995,5.622,142.164,35.785,142.164,73.006z"/>
					<path fill="#212020" d="M142.011,73.006c0,37.127-30.101,67.235-67.231,67.235c-37.135,0-67.233-30.108-67.233-67.235
						c0-37.136,30.098-67.23,67.233-67.23C111.91,5.775,142.011,35.87,142.011,73.006z"/>
					<path fill="#1A1A1A" d="M141.856,73.006c0,37.041-30.031,67.082-67.077,67.082c-37.05,0-67.079-30.041-67.079-67.082
						c0-37.051,30.029-67.077,67.079-67.077C111.825,5.929,141.856,35.955,141.856,73.006z"/>
					<path fill="#131313" d="M141.703,73.006c0,36.957-29.963,66.929-66.924,66.929c-36.965,0-66.926-29.972-66.926-66.929
						c0-36.966,29.96-66.923,66.926-66.923C111.74,6.083,141.703,36.04,141.703,73.006z"/>
					<path fill="#0B0B0B" d="M141.55,73.006c0,36.872-29.895,66.775-66.771,66.775c-36.88,0-66.772-29.903-66.772-66.775
						c0-36.881,29.893-66.77,66.772-66.77C111.655,6.236,141.55,36.125,141.55,73.006z"/>
					<path fill="#010101" d="M141.396,73.006c0,36.787-29.826,66.622-66.617,66.622c-36.795,0-66.619-29.835-66.619-66.622
						C8.16,36.209,37.984,6.39,74.779,6.39C111.57,6.39,141.396,36.209,141.396,73.006z"/>
				</g>
				
					<radialGradient id="SVGID_1_" cx="74.7783" cy="72.959" r="74.8714" gradientTransform="matrix(1 0 0 1 0 0.0498)" gradientUnits="userSpaceOnUse">
					<stop  offset="0" style="stop-color:#FFFFFF"/>
					<stop  offset="0.6923" style="stop-color:#FAFAFA"/>
					<stop  offset="1" style="stop-color:#CCCCCC"/>
				</radialGradient>
				<path fill="url(#SVGID_1_)" stroke="#231F20" stroke-width="0.1561" d="M141.396,73.006c0,36.787-29.826,66.622-66.617,66.622
					c-36.795,0-66.619-29.835-66.619-66.622C8.16,36.209,37.984,6.39,74.779,6.39C111.57,6.39,141.396,36.209,141.396,73.006z"/>
			</g>
		</g>
		<g>
			<g>
				<g>
					<defs>
						<path id="SVGID_2_" d="M135.497,75.217c0,34.014-27.575,61.586-61.591,61.586c-34.016,0-61.587-27.572-61.587-61.586
							c0-34.017,27.572-61.59,61.587-61.59C107.922,13.627,135.497,41.2,135.497,75.217z"/>
					</defs>
					<clipPath id="SVGID_3_">
						<use xlink:href="#SVGID_2_"  overflow="visible"/>
					</clipPath>
					<g clip-path="url(#SVGID_3_)">
						<g>
							<polygon fill="#FFFFFF" points="53.317,13.552 94.475,13.552 94.475,55.931 197.37,54.697 197.37,95.843 94.475,97.081 
								94.475,138.226 53.317,138.226 53.317,97.081 -49.58,95.843 -49.58,54.697 53.317,55.931 							"/>
							<polygon fill="#FFFFFF" points="-49.58,13.552 -21.971,14.786 197.37,124.427 197.37,136.993 169.763,138.226 -49.58,27.352 
															"/>
							<g>
								<polygon fill="#FFFFFF" points="197.37,13.552 169.763,14.786 -49.58,124.427 -49.58,136.993 -21.971,138.226 
									197.37,27.352 								"/>
							</g>
						</g>
					</g>
				</g>
				<linearGradient id="SVGID_4_" gradientUnits="userSpaceOnUse" x1="73.8223" y1="84.9053" x2="73.9544" y2="33.3813">
					<stop  offset="0" style="stop-color:#FFFFFF;stop-opacity:0"/>
					<stop  offset="1" style="stop-color:#FFFFFF"/>
				</linearGradient>
				<ellipse opacity="0.5" fill="url(#SVGID_4_)" cx="73.908" cy="51.593" rx="48.186" ry="33.735"/>
				<linearGradient id="SVGID_5_" gradientUnits="userSpaceOnUse" x1="74.7778" y1="58.2378" x2="74.7778" y2="121.6699">
					<stop  offset="0.0056" style="stop-color:#DFE2E5"/>
					<stop  offset="0.2528" style="stop-color:#FFFCE6"/>
					<stop  offset="0.4163" style="stop-color:#EBE5D5"/>
					<stop  offset="0.5955" style="stop-color:#D5CCC0"/>
					<stop  offset="0.7865" style="stop-color:#EEEDEE"/>
					<stop  offset="1" style="stop-color:#D7D5BB"/>
				</linearGradient>
				<path fill="url(#SVGID_5_)" d="M7.01,74.704c0,21.242,9.781,40.198,25.079,52.625c-12.068-13.181-19.603-31.881-19.603-52.625
					c0-20.749,7.534-39.448,19.603-52.628C16.791,34.499,7.01,53.456,7.01,74.704z M117.469,22.076
					c12.066,13.18,19.604,31.88,19.604,52.628c0,20.744-7.537,39.444-19.604,52.625c15.299-12.427,25.077-31.383,25.077-52.625
					C142.546,53.458,132.768,34.499,117.469,22.076z"/>
				<path fill="#FFFFFF" d="M74.779,137.627c-34.709,0-62.922-28.076-63.608-61.249c-0.009,0.427-0.016,0.855-0.016,1.284
					c0,35.141,28.484,63.626,63.624,63.626c35.134,0,63.623-28.485,63.623-63.626c0-0.429-0.009-0.857-0.018-1.284
					C137.7,109.551,109.484,137.627,74.779,137.627z"/>
				<path fill="#FFFFFF" d="M74.779,12.445c34.705,0,62.921,27.038,63.605,60.208c0.009-0.429,0.018-0.857,0.018-1.287
					c0-35.138-28.489-63.624-63.623-63.624c-35.14,0-63.624,28.486-63.624,63.624c0,0.429,0.007,0.858,0.016,1.287
					C11.857,39.483,40.07,12.445,74.779,12.445z"/>
				<g>
				</g>
				<g>
					<defs>
						<path id="SVGID_6_" d="M139.221,75.217c0,35.161-28.508,63.667-63.674,63.667c-35.165,0-63.669-28.506-63.669-63.667
							c0-35.167,28.504-63.673,63.669-63.673C110.713,11.544,139.221,40.049,139.221,75.217z"/>
					</defs>
					<clipPath id="SVGID_7_">
						<use xlink:href="#SVGID_6_"  overflow="visible"/>
					</clipPath>
					<g clip-path="url(#SVGID_7_)">
						<g>
							<defs>
								<rect id="SVGID_8_" x="-35.739" y="7.303" width="223.792" height="130.542"/>
							</defs>
							<clipPath id="SVGID_9_">
								<use xlink:href="#SVGID_8_"  overflow="visible"/>
							</clipPath>
							<rect x="-35.739" y="7.303" clip-path="url(#SVGID_9_)" fill="#010101" width="223.792" height="43.514"/>
							<rect x="-35.739" y="50.817" clip-path="url(#SVGID_9_)" fill="#DF2228" width="223.792" height="43.513"/>
							<rect x="-35.739" y="94.33" clip-path="url(#SVGID_9_)" fill="#F6D927" width="223.792" height="43.515"/>
							<g clip-path="url(#SVGID_9_)">
								<defs>
									<rect id="SVGID_10_" x="-35.739" y="7.303" width="223.792" height="130.542"/>
								</defs>
								<clipPath id="SVGID_11_">
									<use xlink:href="#SVGID_10_"  overflow="visible"/>
								</clipPath>
							</g>
						</g>
					</g>
				</g>
				<linearGradient id="SVGID_12_" gradientUnits="userSpaceOnUse" x1="76.0459" y1="80.4658" x2="76.178" y2="28.9407">
					<stop  offset="0" style="stop-color:#FFFFFF;stop-opacity:0"/>
					<stop  offset="1" style="stop-color:#FFFFFF"/>
				</linearGradient>
				<ellipse opacity="0.5" fill="url(#SVGID_12_)" cx="76.132" cy="47.152" rx="48.186" ry="33.737"/>
			</g>
		</g>
		<g opacity="0.2">
			<g>
				<g>
					<path fill="#FFFFFF" d="M147.858,76.03c0,40.359-32.712,73.08-73.077,73.08c-40.371,0-73.083-32.721-73.083-73.08
						c0-40.368,32.713-73.082,73.083-73.082C115.146,2.949,147.858,35.663,147.858,76.03z"/>
					<path fill="#EDECEC" d="M147.702,76.03c0,40.272-32.643,72.923-72.92,72.923c-40.284,0-72.927-32.65-72.927-72.923
						c0-40.28,32.643-72.924,72.927-72.924C115.06,3.106,147.702,35.75,147.702,76.03z"/>
					<path fill="#E1E0DF" d="M147.545,76.03c0,40.186-32.572,72.767-72.763,72.767c-40.197,0-72.77-32.581-72.77-72.767
						c0-40.194,32.573-72.768,72.77-72.768C114.973,3.263,147.545,35.836,147.545,76.03z"/>
					<path fill="#D6D4D4" d="M147.387,76.03c0,40.099-32.501,72.608-72.605,72.608c-40.11,0-72.613-32.51-72.613-72.608
						c0-40.107,32.503-72.61,72.613-72.61C114.886,3.42,147.387,35.923,147.387,76.03z"/>
					<path fill="#CBC9C9" d="M147.23,76.03c0,40.013-32.432,72.452-72.449,72.452c-40.023,0-72.456-32.439-72.456-72.452
						c0-40.021,32.432-72.453,72.456-72.453C114.799,3.577,147.23,36.01,147.23,76.03z"/>
					<path fill="#C1BFBF" d="M147.074,76.03c0,39.925-32.362,72.296-72.292,72.296c-39.937,0-72.298-32.371-72.298-72.296
						c0-39.933,32.362-72.296,72.298-72.296C114.712,3.734,147.074,36.097,147.074,76.03z"/>
					<path fill="#B7B5B5" d="M146.917,76.03c0,39.839-32.292,72.138-72.135,72.138c-39.849,0-72.141-32.299-72.141-72.138
						c0-39.847,32.292-72.139,72.141-72.139C114.625,3.892,146.917,36.184,146.917,76.03z"/>
					<path fill="#AEABAB" d="M146.759,76.03c0,39.751-32.222,71.981-71.977,71.981c-39.763,0-71.984-32.23-71.984-71.981
						c0-39.76,32.222-71.981,71.984-71.981C114.537,4.049,146.759,36.271,146.759,76.03z"/>
					<path fill="#A5A2A2" d="M146.603,76.03c0,39.665-32.151,71.824-71.821,71.824c-39.675,0-71.827-32.159-71.827-71.824
						c0-39.673,32.152-71.824,71.827-71.824C114.451,4.206,146.603,36.357,146.603,76.03z"/>
					<path fill="#9C9999" d="M146.445,76.03c0,39.578-32.081,71.667-71.663,71.667c-39.589,0-71.67-32.089-71.67-71.667
						c0-39.585,32.081-71.667,71.67-71.667C114.364,4.363,146.445,36.445,146.445,76.03z"/>
					<path fill="#939090" d="M146.289,76.03c0,39.491-32.012,71.511-71.508,71.511c-39.501,0-71.512-32.02-71.512-71.511
						c0-39.499,32.011-71.51,71.512-71.51C114.277,4.52,146.289,36.531,146.289,76.03z"/>
					<path fill="#8B8888" d="M146.132,76.03c0,39.403-31.942,71.353-71.351,71.353c-39.415,0-71.356-31.949-71.356-71.353
						c0-39.412,31.941-71.354,71.356-71.354C114.189,4.677,146.132,36.618,146.132,76.03z"/>
					<path fill="#827F7F" d="M145.975,76.03c0,39.317-31.872,71.196-71.192,71.196c-39.329,0-71.199-31.879-71.199-71.196
						c0-39.325,31.871-71.196,71.199-71.196C114.103,4.834,145.975,36.705,145.975,76.03z"/>
					<path fill="#7B7777" d="M145.818,76.03c0,39.231-31.802,71.04-71.036,71.04c-39.241,0-71.042-31.809-71.042-71.04
						c0-39.238,31.801-71.039,71.042-71.039C114.017,4.992,145.818,36.792,145.818,76.03z"/>
					<path fill="#737070" d="M145.661,76.03c0,39.144-31.731,70.882-70.879,70.882c-39.154,0-70.885-31.738-70.885-70.882
						c0-39.151,31.731-70.882,70.885-70.882C113.93,5.148,145.661,36.879,145.661,76.03z"/>
					<path fill="#6B6868" d="M145.504,76.03c0,39.057-31.662,70.726-70.723,70.726c-39.067,0-70.728-31.669-70.728-70.726
						c0-39.064,31.66-70.725,70.728-70.725C113.842,5.305,145.504,36.966,145.504,76.03z"/>
					<path fill="#646161" d="M145.347,76.03c0,38.97-31.591,70.568-70.565,70.568c-38.98,0-70.571-31.599-70.571-70.568
						c0-38.978,31.59-70.567,70.571-70.567C113.756,5.463,145.347,37.053,145.347,76.03z"/>
					<path fill="#5D5B5A" d="M145.189,76.03c0,38.884-31.521,70.411-70.407,70.411c-38.894,0-70.414-31.527-70.414-70.411
						c0-38.891,31.521-70.41,70.414-70.41C113.668,5.62,145.189,37.14,145.189,76.03z"/>
					<path fill="#575454" d="M145.033,76.03c0,38.796-31.452,70.255-70.251,70.255c-38.807,0-70.256-31.459-70.256-70.255
						c0-38.804,31.45-70.253,70.256-70.253C113.581,5.777,145.033,37.227,145.033,76.03z"/>
					<path fill="#514E4D" d="M144.876,76.03c0,38.71-31.382,70.098-70.094,70.098c-38.721,0-70.1-31.388-70.1-70.098
						c0-38.717,31.379-70.096,70.1-70.096C113.494,5.935,144.876,37.313,144.876,76.03z"/>
					<path fill="#4A4847" d="M144.719,76.03c0,38.623-31.312,69.94-69.937,69.94c-38.633,0-69.943-31.317-69.943-69.94
						c0-38.63,31.31-69.939,69.943-69.939C113.407,6.091,144.719,37.4,144.719,76.03z"/>
					<path fill="#444241" d="M144.563,76.03c0,38.536-31.242,69.784-69.781,69.784c-38.545,0-69.785-31.248-69.785-69.784
						c0-38.543,31.24-69.782,69.785-69.782C113.32,6.249,144.563,37.487,144.563,76.03z"/>
					<path fill="#3E3C3C" d="M144.404,76.03c0,38.449-31.171,69.626-69.623,69.626c-38.459,0-69.628-31.177-69.628-69.626
						c0-38.457,31.169-69.625,69.628-69.625C113.233,6.406,144.404,37.574,144.404,76.03z"/>
					<path fill="#383736" d="M144.248,76.03c0,38.362-31.102,69.47-69.467,69.47c-38.372,0-69.471-31.107-69.471-69.47
						c0-38.37,31.099-69.468,69.471-69.468C113.146,6.563,144.248,37.661,144.248,76.03z"/>
					<path fill="#333131" d="M144.091,76.03c0,38.275-31.03,69.313-69.309,69.313c-38.285,0-69.314-31.037-69.314-69.313
						c0-38.282,31.029-69.311,69.314-69.311C113.061,6.72,144.091,37.748,144.091,76.03z"/>
					<path fill="#2D2C2B" d="M143.935,76.03c0,38.188-30.962,69.155-69.153,69.155c-38.199,0-69.157-30.967-69.157-69.155
						c0-38.195,30.958-69.153,69.157-69.153C112.973,6.877,143.935,37.835,143.935,76.03z"/>
					<path fill="#272626" d="M143.777,76.03c0,38.102-30.892,68.999-68.996,68.999c-38.112,0-69-30.897-69-68.999
						c0-38.108,30.888-68.996,69-68.996C112.886,7.034,143.777,37.922,143.777,76.03z"/>
					<path fill="#212020" d="M143.62,76.03c0,38.016-30.821,68.842-68.838,68.842c-38.025,0-68.843-30.826-68.843-68.842
						c0-38.021,30.818-68.839,68.843-68.839C112.799,7.191,143.62,38.009,143.62,76.03z"/>
					<path fill="#1A1A1A" d="M143.463,76.03c0,37.929-30.751,68.685-68.681,68.685c-37.938,0-68.686-30.756-68.686-68.685
						c0-37.935,30.748-68.682,68.686-68.682C112.712,7.349,143.463,38.095,143.463,76.03z"/>
					<path fill="#131313" d="M143.307,76.03c0,37.842-30.682,68.528-68.525,68.528c-37.851,0-68.529-30.687-68.529-68.528
						c0-37.848,30.678-68.524,68.529-68.524C112.625,7.506,143.307,38.182,143.307,76.03z"/>
					<path fill="#0B0B0B" d="M143.149,76.03c0,37.755-30.611,68.37-68.368,68.37c-37.764,0-68.372-30.615-68.372-68.37
						c0-37.761,30.608-68.368,68.372-68.368C112.538,7.663,143.149,38.269,143.149,76.03z"/>
					<path fill="#010101" d="M142.992,76.03c0,37.668-30.541,68.214-68.21,68.214c-37.677,0-68.215-30.546-68.215-68.214
						c0-37.674,30.538-68.21,68.215-68.21C112.451,7.82,142.992,38.356,142.992,76.03z"/>
				</g>
				
					<radialGradient id="SVGID_13_" cx="74.7793" cy="75.9824" r="76.6626" gradientTransform="matrix(1 0 0 1 0 0.0498)" gradientUnits="userSpaceOnUse">
					<stop  offset="0" style="stop-color:#FFFFFF"/>
					<stop  offset="0.6923" style="stop-color:#FAFAFA"/>
					<stop  offset="1" style="stop-color:#CCCCCC"/>
				</radialGradient>
				<path fill="url(#SVGID_13_)" stroke="#231F20" stroke-width="0.1599" d="M142.992,76.03c0,37.668-30.541,68.214-68.21,68.214
					c-37.677,0-68.215-30.546-68.215-68.214c0-37.674,30.538-68.21,68.215-68.21C112.451,7.82,142.992,38.356,142.992,76.03z"/>
			</g>
		</g>
	</g>
	<g>
		<g opacity="0.2">
			<g>
				<g>
					<path fill="#FFFFFF" d="M144.409,74.354c0,39.42-31.948,71.373-71.372,71.373c-39.427,0-71.375-31.953-71.375-71.373
						c0-39.424,31.948-71.375,71.375-71.375C112.461,2.979,144.409,34.929,144.409,74.354z"/>
					<path fill="#EDECEC" d="M144.256,74.354c0,39.335-31.88,71.22-71.218,71.22c-39.342,0-71.222-31.885-71.222-71.22
						c0-39.34,31.879-71.222,71.222-71.222C112.376,3.132,144.256,35.014,144.256,74.354z"/>
					<path fill="#E1E0DF" d="M144.103,74.354c0,39.25-31.812,71.066-71.064,71.066c-39.257,0-71.068-31.816-71.068-71.066
						c0-39.254,31.811-71.068,71.068-71.068C112.291,3.286,144.103,35.099,144.103,74.354z"/>
					<path fill="#D6D4D4" d="M143.949,74.353c0,39.166-31.743,70.914-70.912,70.914c-39.172,0-70.914-31.748-70.914-70.914
						c0-39.169,31.742-70.915,70.914-70.915C112.206,3.438,143.949,35.184,143.949,74.353z"/>
					<path fill="#CBC9C9" d="M143.796,74.354c0,39.08-31.675,70.76-70.758,70.76c-39.087,0-70.761-31.68-70.761-70.76
						c0-39.085,31.674-70.761,70.761-70.761C112.121,3.592,143.796,35.269,143.796,74.354z"/>
					<path fill="#C1BFBF" d="M143.643,74.354c0,38.996-31.606,70.607-70.604,70.607c-39.003,0-70.608-31.611-70.608-70.607
						c0-39,31.605-70.607,70.608-70.607C112.036,3.747,143.643,35.354,143.643,74.354z"/>
					<path fill="#B7B5B5" d="M143.489,74.354c0,38.911-31.538,70.453-70.452,70.453c-38.917,0-70.454-31.542-70.454-70.453
						C2.583,35.438,34.12,3.9,73.038,3.9C111.951,3.9,143.489,35.438,143.489,74.354z"/>
					<path fill="#AEABAB" d="M143.336,74.353c0,38.827-31.47,70.3-70.299,70.3c-38.833,0-70.301-31.474-70.301-70.3
						c0-38.831,31.468-70.3,70.301-70.3C111.866,4.053,143.336,35.522,143.336,74.353z"/>
					<path fill="#A5A2A2" d="M143.183,74.354c0,38.741-31.401,70.146-70.145,70.146C34.29,144.5,2.89,113.095,2.89,74.354
						c0-38.746,31.4-70.146,70.147-70.146C111.781,4.207,143.183,35.608,143.183,74.354z"/>
					<path fill="#9C9999" d="M143.029,74.354c0,38.656-31.332,69.994-69.991,69.994c-38.663,0-69.994-31.338-69.994-69.994
						c0-38.661,31.331-69.993,69.994-69.993C111.697,4.36,143.029,35.692,143.029,74.354z"/>
					<path fill="#939090" d="M142.876,74.354c0,38.571-31.264,69.841-69.838,69.841c-38.578,0-69.841-31.27-69.841-69.841
						c0-38.576,31.263-69.84,69.841-69.84C111.612,4.514,142.876,35.777,142.876,74.354z"/>
					<path fill="#8B8888" d="M142.722,74.354c0,38.486-31.195,69.688-69.684,69.688c-38.494,0-69.688-31.201-69.688-69.688
						c0-38.491,31.194-69.687,69.688-69.687C111.526,4.667,142.722,35.862,142.722,74.354z"/>
					<path fill="#827F7F" d="M142.569,74.354c0,38.402-31.127,69.534-69.532,69.534c-38.408,0-69.534-31.132-69.534-69.534
						c0-38.406,31.126-69.533,69.534-69.533C111.442,4.82,142.569,35.947,142.569,74.354z"/>
					<path fill="#7B7777" d="M142.416,74.354c0,38.317-31.059,69.381-69.378,69.381c-38.324,0-69.381-31.063-69.381-69.381
						c0-38.322,31.057-69.379,69.381-69.379C111.357,4.975,142.416,36.032,142.416,74.354z"/>
					<path fill="#737070" d="M142.262,74.354c0,38.232-30.989,69.228-69.224,69.228c-38.239,0-69.228-30.995-69.228-69.228
						c0-38.237,30.989-69.226,69.228-69.226C111.272,5.128,142.262,36.116,142.262,74.354z"/>
					<path fill="#6B6868" d="M142.109,74.354c0,38.147-30.922,69.074-69.072,69.074c-38.154,0-69.075-30.927-69.075-69.074
						c0-38.152,30.921-69.072,69.075-69.072C111.188,5.281,142.109,36.201,142.109,74.354z"/>
					<path fill="#646161" d="M141.956,74.354c0,38.063-30.854,68.921-68.918,68.921c-38.069,0-68.921-30.858-68.921-68.921
						c0-38.067,30.852-68.918,68.921-68.918C111.103,5.435,141.956,36.286,141.956,74.354z"/>
					<path fill="#5D5B5A" d="M141.803,74.354c0,37.979-30.785,68.768-68.765,68.768c-37.984,0-68.767-30.789-68.767-68.768
						c0-37.982,30.783-68.765,68.767-68.765C111.018,5.588,141.803,36.371,141.803,74.354z"/>
					<path fill="#575454" d="M141.648,74.354c0,37.893-30.716,68.614-68.611,68.614c-37.899,0-68.614-30.722-68.614-68.614
						c0-37.898,30.715-68.611,68.614-68.611C110.933,5.742,141.648,36.456,141.648,74.354z"/>
					<path fill="#514E4D" d="M141.495,74.354c0,37.809-30.647,68.461-68.458,68.461c-37.814,0-68.46-30.652-68.46-68.461
						c0-37.813,30.646-68.458,68.46-68.458C110.848,5.896,141.495,36.541,141.495,74.354z"/>
					<path fill="#4A4847" d="M141.342,74.354c0,37.724-30.578,68.309-68.304,68.309c-37.73,0-68.308-30.585-68.308-68.309
						c0-37.729,30.577-68.305,68.308-68.305C110.764,6.049,141.342,36.625,141.342,74.354z"/>
					<path fill="#444241" d="M141.188,74.354c0,37.639-30.511,68.154-68.15,68.154c-37.645,0-68.154-30.516-68.154-68.154
						c0-37.644,30.509-68.151,68.154-68.151C110.678,6.202,141.188,36.71,141.188,74.354z"/>
					<path fill="#3E3C3C" d="M141.035,74.354c0,37.554-30.442,68.002-67.998,68.002c-37.56,0-68-30.448-68-68.002
						c0-37.559,30.44-67.998,68-67.998C110.593,6.356,141.035,36.795,141.035,74.354z"/>
					<path fill="#383736" d="M140.883,74.354c0,37.469-30.375,67.848-67.845,67.848c-37.475,0-67.847-30.379-67.847-67.848
						C5.19,36.88,35.563,6.51,73.038,6.51C110.508,6.51,140.883,36.88,140.883,74.354z"/>
					<path fill="#333131" d="M140.729,74.354c0,37.384-30.305,67.695-67.691,67.695c-37.39,0-67.693-30.312-67.693-67.695
						c0-37.389,30.304-67.69,67.693-67.69C110.424,6.663,140.729,36.965,140.729,74.354z"/>
					<path fill="#2D2C2B" d="M140.575,74.354c0,37.299-30.236,67.542-67.538,67.542c-37.305,0-67.541-30.243-67.541-67.542
						c0-37.304,30.235-67.537,67.541-67.537C110.339,6.816,140.575,37.049,140.575,74.354z"/>
					<path fill="#272626" d="M140.422,74.354c0,37.214-30.168,67.389-67.384,67.389c-37.22,0-67.387-30.175-67.387-67.389
						c0-37.22,30.167-67.383,67.387-67.383C110.254,6.97,140.422,37.134,140.422,74.354z"/>
					<path fill="#212020" d="M140.269,74.354c0,37.129-30.1,67.235-67.231,67.235c-37.135,0-67.234-30.106-67.234-67.235
						c0-37.134,30.099-67.229,67.234-67.229C110.169,7.124,140.269,37.219,140.269,74.354z"/>
					<path fill="#1A1A1A" d="M140.115,74.354c0,37.045-30.031,67.082-67.078,67.082c-37.05,0-67.08-30.037-67.08-67.082
						c0-37.05,30.03-67.076,67.08-67.076C110.084,7.277,140.115,37.304,140.115,74.354z"/>
					<path fill="#131313" d="M139.962,74.354c0,36.96-29.963,66.929-66.924,66.929c-36.966,0-66.927-29.969-66.927-66.929
						c0-36.965,29.961-66.923,66.927-66.923C109.999,7.431,139.962,37.388,139.962,74.354z"/>
					<path fill="#0B0B0B" d="M139.809,74.354c0,36.875-29.895,66.775-66.771,66.775c-36.88,0-66.773-29.9-66.773-66.775
						c0-36.88,29.893-66.769,66.773-66.769C109.914,7.584,139.809,37.474,139.809,74.354z"/>
					<path fill="#010101" d="M139.655,74.354c0,36.79-29.826,66.622-66.618,66.622c-36.796,0-66.62-29.832-66.62-66.622
						c0-36.795,29.824-66.616,66.62-66.616C109.829,7.738,139.655,37.558,139.655,74.354z"/>
				</g>
				
					<radialGradient id="SVGID_14_" cx="73.0361" cy="74.3066" r="74.8719" gradientTransform="matrix(1 0 0 1 0 0.0498)" gradientUnits="userSpaceOnUse">
					<stop  offset="0" style="stop-color:#FFFFFF"/>
					<stop  offset="0.6923" style="stop-color:#FAFAFA"/>
					<stop  offset="1" style="stop-color:#CCCCCC"/>
				</radialGradient>
				<path fill="url(#SVGID_14_)" stroke="#231F20" stroke-width="0.1561" d="M139.655,74.354c0,36.79-29.826,66.622-66.618,66.622
					c-36.796,0-66.62-29.832-66.62-66.622c0-36.795,29.824-66.616,66.62-66.616C109.829,7.738,139.655,37.558,139.655,74.354z"/>
			</g>
		</g>
		<g>
			<g>
				<g>
					<defs>
						<path id="SVGID_15_" d="M133.756,76.565c0,34.014-27.576,61.586-61.593,61.586c-34.015,0-61.587-27.572-61.587-61.586
							c0-34.017,27.573-61.589,61.587-61.589C106.18,14.976,133.756,42.548,133.756,76.565z"/>
					</defs>
					<clipPath id="SVGID_16_">
						<use xlink:href="#SVGID_15_"  overflow="visible"/>
					</clipPath>
					<g clip-path="url(#SVGID_16_)">
						<g>
							<polygon fill="#FFFFFF" points="51.575,14.901 92.733,14.901 92.733,57.28 195.629,56.045 195.629,97.192 92.733,98.429 
								92.733,139.574 51.575,139.574 51.575,98.429 -51.322,97.192 -51.322,56.045 51.575,57.28 							"/>
							<polygon fill="#FFFFFF" points="-51.322,14.901 -23.713,16.135 195.629,125.775 195.629,138.342 168.021,139.574 
								-51.322,28.7 							"/>
							<g>
								<polygon fill="#FFFFFF" points="195.629,14.901 168.021,16.135 -51.322,125.775 -51.322,138.342 -23.713,139.574 
									195.629,28.7 								"/>
							</g>
						</g>
					</g>
				</g>
				<linearGradient id="SVGID_17_" gradientUnits="userSpaceOnUse" x1="72.0786" y1="86.2539" x2="72.2107" y2="34.7299">
					<stop  offset="0" style="stop-color:#FFFFFF;stop-opacity:0"/>
					<stop  offset="1" style="stop-color:#FFFFFF"/>
				</linearGradient>
				<ellipse opacity="0.5" fill="url(#SVGID_17_)" cx="72.165" cy="52.94" rx="48.185" ry="33.736"/>
				<linearGradient id="SVGID_18_" gradientUnits="userSpaceOnUse" x1="73.0366" y1="59.5864" x2="73.0366" y2="123.0177">
					<stop  offset="0.0056" style="stop-color:#DFE2E5"/>
					<stop  offset="0.2528" style="stop-color:#FFFCE6"/>
					<stop  offset="0.4163" style="stop-color:#EBE5D5"/>
					<stop  offset="0.5955" style="stop-color:#D5CCC0"/>
					<stop  offset="0.7865" style="stop-color:#EEEDEE"/>
					<stop  offset="1" style="stop-color:#D7D5BB"/>
				</linearGradient>
				<path fill="url(#SVGID_18_)" d="M5.269,76.053c0,21.242,9.781,40.197,25.079,52.624c-12.068-13.18-19.603-31.88-19.603-52.624
					c0-20.748,7.534-39.448,19.603-52.628C15.049,35.848,5.269,54.805,5.269,76.053z M115.724,23.425
					c12.067,13.18,19.604,31.88,19.604,52.628c0,20.744-7.536,39.444-19.604,52.624c15.3-12.427,25.081-31.382,25.081-52.624
					C140.805,54.807,131.023,35.848,115.724,23.425z"/>
				<path fill="#FFFFFF" d="M73.038,138.976c-34.709,0-62.923-28.076-63.608-61.248c-0.009,0.426-0.017,0.854-0.017,1.284
					c0,35.14,28.484,63.625,63.625,63.625c35.134,0,63.621-28.485,63.621-63.625c0-0.43-0.006-0.858-0.015-1.284
					C135.959,110.899,107.74,138.976,73.038,138.976z"/>
				<path fill="#FFFFFF" d="M73.038,13.794c34.703,0,62.921,27.038,63.606,60.207c0.009-0.428,0.015-0.857,0.015-1.286
					c0-35.139-28.486-63.624-63.621-63.624c-35.14,0-63.625,28.486-63.625,63.624c0,0.429,0.007,0.858,0.017,1.286
					C10.115,40.832,38.329,13.794,73.038,13.794z"/>
				<g>
				</g>
				<g>
					<defs>
						<path id="SVGID_19_" d="M137.479,76.565c0,35.163-28.511,63.666-63.676,63.666c-35.164,0-63.668-28.503-63.668-63.666
							c0-35.167,28.504-63.672,63.668-63.672C108.969,12.893,137.479,41.398,137.479,76.565z"/>
					</defs>
					<clipPath id="SVGID_20_">
						<use xlink:href="#SVGID_19_"  overflow="visible"/>
					</clipPath>
					<g clip-path="url(#SVGID_20_)">
						<g>
							<defs>
								<rect id="SVGID_21_" x="-37.481" y="8.652" width="223.793" height="130.538"/>
							</defs>
							<clipPath id="SVGID_22_">
								<use xlink:href="#SVGID_21_"  overflow="visible"/>
							</clipPath>
							<rect x="-37.481" y="8.652" clip-path="url(#SVGID_22_)" fill="#010101" width="223.793" height="43.514"/>
							<rect x="-37.481" y="52.167" clip-path="url(#SVGID_22_)" fill="#DF2228" width="223.793" height="43.512"/>
							<rect x="-37.481" y="95.679" clip-path="url(#SVGID_22_)" fill="#F6D927" width="223.793" height="43.512"/>
							<g clip-path="url(#SVGID_22_)">
								<defs>
									<rect id="SVGID_23_" x="-37.481" y="8.652" width="223.793" height="130.538"/>
								</defs>
								<clipPath id="SVGID_24_">
									<use xlink:href="#SVGID_23_"  overflow="visible"/>
								</clipPath>
							</g>
						</g>
					</g>
				</g>
				<linearGradient id="SVGID_25_" gradientUnits="userSpaceOnUse" x1="74.3022" y1="81.8145" x2="74.4343" y2="30.2897">
					<stop  offset="0" style="stop-color:#FFFFFF;stop-opacity:0"/>
					<stop  offset="1" style="stop-color:#FFFFFF"/>
				</linearGradient>
				<ellipse opacity="0.3" fill="url(#SVGID_25_)" cx="74.388" cy="48.501" rx="48.185" ry="33.736"/>
			</g>
		</g>
	</g>
</g>
</svg>
