<?xml version="1.0" encoding="utf-8"?>
<!-- Generator: Adobe Illustrator 16.0.0, SVG Export Plug-In . SVG Version: 6.00 Build 0)  -->
<!DOCTYPE svg PUBLIC "-//W3C//DTD SVG 1.1//EN" "http://www.w3.org/Graphics/SVG/1.1/DTD/svg11.dtd">
<svg version="1.1" id="Calque_1" xmlns="http://www.w3.org/2000/svg" xmlns:xlink="http://www.w3.org/1999/xlink" x="0px" y="0px"
	 width="80px" height="50px" viewBox="0 0 80 50" enable-background="new 0 0 80 50" xml:space="preserve">
<g>
	<path fill="#FFFFFF" d="M53.909,49.627c0,0-0.63-6.928-5.667-7.084C43.206,42.387,68.233,29.005,53.909,49.627z"/>
	<path d="M53.859,49.632c0,0-0.119-0.53-0.419-1.416c-0.31-0.871-0.771-2.15-1.716-3.347c-0.464-0.597-1.068-1.158-1.833-1.505
		c-0.178-0.118-0.395-0.15-0.595-0.234c-0.199-0.094-0.419-0.129-0.642-0.168c-0.244-0.044-0.49-0.088-0.739-0.133
		c-0.162-0.038-0.333-0.088-0.506-0.268c-0.195-0.219-0.13-0.527-0.053-0.655c0.33-0.568,0.787-0.803,1.217-1.128
		c0.442-0.295,0.896-0.573,1.363-0.837c0.938-0.52,1.9-1.034,2.919-1.454c1.017-0.422,2.086-0.771,3.249-0.793
		c0.574-0.009,1.202,0.084,1.767,0.44c0.578,0.354,0.914,1.024,1.001,1.612c0.158,1.199-0.183,2.21-0.522,3.105
		c-0.347,0.902-0.782,1.688-1.2,2.397c-0.825,1.426-1.658,2.506-2.242,3.257c-0.595,0.743-0.958,1.148-0.958,1.148l-0.068,0.076
		L53.859,49.632z M53.957,49.433c0.111-0.205,0.322-0.597,0.618-1.146c0.46-0.825,1.1-2.014,1.805-3.447
		c0.344-0.72,0.691-1.511,0.993-2.35c0.281-0.835,0.561-1.76,0.476-2.593c-0.052-0.407-0.205-0.745-0.516-0.964
		c-0.31-0.226-0.766-0.332-1.247-0.358c-0.972-0.053-2.027,0.16-3.05,0.431c-1.022,0.292-2.032,0.681-2.949,1.202
		c-0.458,0.259-0.904,0.536-1.301,0.859c-0.385,0.306-0.803,0.699-0.931,1.045c-0.027,0.093-0.001,0.085-0.007,0.056
		c0.009-0.006,0.085,0.03,0.166,0.03c0.246,0.012,0.489,0.023,0.729,0.034c0.525-0.003,1.035,0.155,1.507,0.333
		c0.957,0.385,1.653,1.103,2.152,1.793c0.991,1.421,1.293,2.818,1.445,3.76C53.94,48.746,53.955,49.196,53.957,49.433z"/>
</g>
<g>
	<path fill="#FFFFFF" d="M1.333,12.634c0,0,15.898,54.78,55.882,27.547c0,0,0.944-0.786-2.99,6.927
		c-3.936,7.713,15.425-5.824,14.796-20.464c0,0-2.991-5.195,0.157-10.862c0,0,1.103-7.231-4.25-14.949
		c0,0-6.927,11.171-24.714,4.875C22.427-0.588,5.741,9.486,1.333,12.634z"/>
	<path d="M1.395,12.655c0.98,2.972,2.195,5.864,3.548,8.68c0.684,1.412,1.384,2.815,2.147,4.184
		c0.752,1.374,1.549,2.725,2.402,4.037c0.411,0.666,0.856,1.309,1.307,1.948c0.437,0.648,0.9,1.277,1.382,1.893
		c0.466,0.627,0.94,1.247,1.452,1.838c0.5,0.599,0.989,1.207,1.534,1.766c1.043,1.159,2.17,2.237,3.336,3.266
		c0.604,0.488,1.188,1.005,1.808,1.471l1.903,1.341l2.005,1.175c0.683,0.363,1.399,0.66,2.092,1.004
		c1.424,0.593,2.881,1.13,4.396,1.446c0.376,0.084,0.748,0.199,1.129,0.26l1.149,0.148c0.766,0.104,1.532,0.22,2.308,0.197
		c0.773-0.009,1.549,0.074,2.32,0.003l2.318-0.199c0.769-0.102,1.526-0.284,2.291-0.423c0.381-0.079,0.767-0.137,1.143-0.234
		l1.118-0.339c0.742-0.234,1.5-0.43,2.231-0.697l2.17-0.885c0.36-0.15,0.727-0.288,1.083-0.449l1.044-0.534l2.091-1.07
		c1.364-0.767,2.673-1.635,4.01-2.453l-0.014,0.011c0.028-0.023,0.059-0.038,0.091-0.052c0.059-0.011,0.109-0.027,0.18,0.013
		c0.161,0.117,0.101,0.146,0.133,0.22c-0.002,0.071-0.006,0.147-0.02,0.197c-0.022,0.114-0.054,0.215-0.085,0.315
		c-0.066,0.199-0.137,0.394-0.215,0.583c-0.151,0.382-0.315,0.754-0.484,1.125c-0.336,0.742-0.693,1.472-1.05,2.201l-1.099,2.174
		c-0.185,0.361-0.374,0.72-0.511,1.085c-0.126,0.356-0.254,0.776-0.142,1.07c0.101,0.275,0.54,0.252,0.896,0.14
		c0.37-0.108,0.73-0.282,1.079-0.474c0.697-0.388,1.354-0.856,1.985-1.354c1.262-1,2.425-2.127,3.51-3.32
		c2.146-2.406,3.986-5.1,5.323-8.021c1.335-2.912,2.139-6.101,1.979-9.28l0.047,0.161c-0.247-0.452-0.433-0.888-0.604-1.347
		c-0.168-0.456-0.306-0.922-0.423-1.394c-0.231-0.943-0.349-1.917-0.343-2.893c-0.007-0.244-0.003-0.488,0.022-0.731
		c0.021-0.243,0.029-0.488,0.063-0.73l0.119-0.724c0.029-0.244,0.109-0.476,0.166-0.714c0.068-0.235,0.108-0.479,0.201-0.706
		l0.253-0.689c0.168-0.46,0.411-0.886,0.615-1.331l-0.051,0.15c0.039-0.294,0.047-0.623,0.065-0.939
		c0.027-0.317-0.002-0.643-0.001-0.964c-0.014-0.322,0.006-0.645-0.04-0.965l-0.099-0.964c-0.037-0.646-0.203-1.276-0.319-1.912
		l-0.193-0.95l-0.288-0.927c-0.211-0.611-0.342-1.251-0.616-1.838l-0.789-1.773c-0.132-0.295-0.25-0.598-0.435-0.866l-0.504-0.83
		l-1.007-1.66l0.854-0.022c-0.866,1.267-1.891,2.289-3.051,3.195c-1.166,0.877-2.41,1.673-3.766,2.22
		c-1.332,0.601-2.747,0.99-4.174,1.264c-1.432,0.244-2.885,0.379-4.332,0.33c-0.362-0.007-0.726,0.009-1.086-0.017l-1.077-0.116
		c-0.715-0.097-1.444-0.109-2.144-0.29L43.62,7.246c-0.703-0.153-1.378-0.406-2.068-0.604l-4.058-1.26
		c-0.676-0.239-1.357-0.351-2.038-0.493c-0.682-0.134-1.358-0.293-2.046-0.408l-2.088-0.232c-0.349-0.035-0.696-0.086-1.046-0.108
		l-1.051-0.025c-0.701-0.012-1.403-0.046-2.104-0.04l-2.104,0.119C24.313,4.211,23.617,4.32,22.92,4.41
		c-0.694,0.106-1.4,0.15-2.087,0.307l-2.071,0.415c-0.688,0.149-1.363,0.352-2.046,0.526c-0.686,0.166-1.356,0.382-2.025,0.606
		c-0.669,0.224-1.348,0.42-2.001,0.688c-1.325,0.486-2.625,1.036-3.92,1.601L6.856,9.466l-1.875,0.991
		C3.761,11.147,2.552,11.862,1.395,12.655z M1.304,12.594c1.144-0.843,2.344-1.604,3.558-2.344l1.852-1.057L8.607,8.21l1.934-0.904
		c0.649-0.291,1.317-0.539,1.976-0.811c0.655-0.281,1.336-0.492,2.008-0.729c0.672-0.238,1.347-0.469,2.037-0.649
		c0.688-0.188,1.368-0.405,2.063-0.569l2.092-0.458c0.694-0.171,1.409-0.229,2.113-0.348c0.707-0.104,1.412-0.227,2.128-0.258
		l2.14-0.158c0.715-0.019,1.432,0.002,2.147,0.002l1.075,0.008c0.357,0.016,0.713,0.062,1.071,0.091l2.142,0.201
		c0.711,0.105,1.42,0.258,2.13,0.386c0.709,0.136,1.432,0.247,2.1,0.471l4.085,1.199c0.672,0.191,1.331,0.437,2.013,0.583
		l2.05,0.423c0.679,0.175,1.379,0.181,2.068,0.273l1.037,0.109c0.346,0.024,0.693,0.007,1.039,0.012
		c1.388,0.044,2.771-0.091,4.129-0.325c1.353-0.265,2.689-0.635,3.941-1.206c1.278-0.514,2.435-1.279,3.537-2.088
		c1.085-0.822,2.089-1.834,2.832-2.902l0.467-0.671l0.388,0.649l1.036,1.735l0.517,0.868c0.188,0.281,0.311,0.597,0.445,0.905
		l0.808,1.854c0.278,0.614,0.414,1.281,0.627,1.919l0.292,0.968l0.194,0.992c0.116,0.664,0.281,1.32,0.317,1.996l0.094,1.007
		c0.045,0.334,0.024,0.675,0.035,1.013c-0.003,0.339,0.023,0.675-0.008,1.017c-0.023,0.342-0.031,0.675-0.083,1.036l-0.009,0.06
		l-0.043,0.09c-0.193,0.409-0.429,0.802-0.591,1.225l-0.245,0.634c-0.091,0.208-0.129,0.434-0.197,0.65
		c-0.056,0.219-0.135,0.434-0.165,0.659l-0.122,0.669c-0.035,0.224-0.045,0.451-0.069,0.677c-0.028,0.226-0.035,0.453-0.033,0.681
		c-0.021,0.908,0.072,1.823,0.275,2.714c0.103,0.445,0.226,0.886,0.376,1.317c0.149,0.427,0.33,0.862,0.529,1.241l0.044,0.085
		l0.003,0.077c0.11,3.326-0.783,6.594-2.193,9.541c-1.417,2.958-3.332,5.646-5.542,8.042c-1.104,1.199-2.287,2.33-3.575,3.338
		c-0.645,0.501-1.315,0.974-2.04,1.37c-0.362,0.196-0.738,0.376-1.148,0.493c-0.204,0.058-0.42,0.104-0.655,0.083
		c-0.227-0.008-0.522-0.148-0.611-0.408c-0.162-0.492,0.019-0.903,0.145-1.295c0.149-0.395,0.336-0.757,0.517-1.119l1.077-2.18
		c0.35-0.73,0.7-1.461,1.025-2.2c0.165-0.368,0.325-0.739,0.469-1.113c0.075-0.186,0.142-0.374,0.2-0.56
		c0.029-0.094,0.057-0.187,0.072-0.272c0.014-0.048,0.008-0.075,0.014-0.104c0.014,0.027-0.034-0.009,0.073,0.087
		c0.054,0.016,0.073,0.021,0.108,0.006c0.01-0.001,0.016-0.006,0.024-0.014l-0.014,0.011c-1.338,0.836-2.649,1.717-4.004,2.526
		l-2.086,1.127l-1.044,0.564c-0.355,0.171-0.724,0.318-1.085,0.479l-2.18,0.946c-0.738,0.288-1.504,0.504-2.255,0.759l-1.133,0.369
		c-0.382,0.107-0.774,0.176-1.162,0.266c-0.778,0.158-1.551,0.361-2.337,0.482l-2.379,0.256c-0.793,0.094-1.596,0.02-2.394,0.03
		c-0.802,0.026-1.594-0.086-2.388-0.188l-1.191-0.147c-0.395-0.061-0.78-0.175-1.17-0.26c-1.571-0.318-3.083-0.863-4.561-1.467
		c-0.721-0.345-1.453-0.671-2.156-1.048l-2.056-1.229l-1.943-1.393c-0.632-0.484-1.225-1.017-1.838-1.522
		c-1.184-1.061-2.324-2.171-3.375-3.359c-0.55-0.573-1.042-1.195-1.544-1.809c-0.513-0.604-0.992-1.235-1.454-1.878
		c-0.476-0.634-0.932-1.28-1.36-1.946c-0.442-0.656-0.879-1.315-1.28-1.996c-0.833-1.344-1.609-2.722-2.338-4.122
		c-0.735-1.396-1.429-2.815-2.056-4.262c-1.266-2.889-2.386-5.841-3.267-8.867l-0.01-0.034L1.304,12.594z"/>
</g>
<g>
	<path d="M57.248,18.182c0.001,0-0.943,1.17-1.893,3.109c-0.213,0.496-0.485,1.014-0.688,1.599c-0.121,0.286-0.246,0.58-0.373,0.881
		c-0.107,0.311-0.218,0.629-0.329,0.952c-0.229,0.649-0.336,1.362-0.405,2.081c0.008,0.725-0.024,1.465,0.145,2.188
		c0.138,0.725,0.25,1.441,0.45,2.135c0.177,0.696,0.304,1.388,0.562,2.025c0.233,0.643,0.396,1.281,0.612,1.87
		c0.231,0.583,0.431,1.144,0.615,1.663c0.16,0.529,0.371,0.989,0.538,1.408c0.166,0.419,0.323,0.779,0.433,1.088
		c0.228,0.612,0.344,0.975,0.344,0.975l-0.086,0.051c0,0-0.23-0.296-0.608-0.835c-0.193-0.268-0.404-0.605-0.66-0.988
		c-0.261-0.381-0.538-0.82-0.775-1.335c-0.246-0.51-0.514-1.064-0.776-1.66c-0.267-0.594-0.429-1.27-0.632-1.949
		c-0.217-0.678-0.312-1.415-0.435-2.151c-0.157-0.731-0.122-1.504-0.128-2.259c-0.018-0.378-0.005-0.755,0.044-1.13
		c0.025-0.374,0.046-0.746,0.054-1.115c0.012-0.369,0.082-0.73,0.097-1.095c0.035-0.361,0.019-0.728,0.086-1.078
		c0.094-0.706,0.181-1.402,0.407-2.025c0.175-0.64,0.507-1.181,0.76-1.695c0.311-0.487,0.589-0.935,0.902-1.286
		c0.284-0.37,0.592-0.645,0.832-0.874c0.507-0.441,0.844-0.626,0.844-0.626L57.248,18.182z"/>
</g>
<g>
	<path d="M46.905,26.153c-0.382-0.529-0.782-1.037-1.206-1.527c-0.435-0.507-0.898-0.983-1.366-1.454
		c-0.451-0.487-0.978-0.896-1.46-1.347l-1.565-1.21l-1.659-1.067l-1.755-0.89l-1.836-0.693c-0.617-0.212-1.263-0.331-1.894-0.508
		c-0.627-0.206-1.287-0.228-1.938-0.325l-0.981-0.125c-0.328-0.034-0.658,0.001-0.988-0.001c-0.66,0.02-1.326,0.007-1.988,0.053
		l-1.965,0.345c-0.325,0.07-0.658,0.11-0.978,0.204l-0.946,0.324l-1.883,0.673c-0.618,0.247-1.2,0.584-1.792,0.888l-1.767,0.932
		l0.11-0.351c0.648,1.147,1.48,2.223,2.358,3.218c0.438,0.503,0.913,0.971,1.395,1.428c0.496,0.442,0.994,0.881,1.524,1.277
		c1.056,0.8,2.197,1.479,3.402,2.009c0.603,0.266,1.221,0.486,1.845,0.693c0.631,0.186,1.268,0.346,1.916,0.459
		c0.647,0.109,1.299,0.223,1.958,0.244c0.658,0.06,1.318,0.035,1.98,0.034c0.659-0.048,1.326-0.065,1.982-0.179l0.988-0.148
		l0.978-0.216c0.657-0.129,1.294-0.337,1.943-0.509c0.646-0.186,1.273-0.432,1.913-0.646l1.88-0.759L46.905,26.153z M47.049,26.19
		l-1.795,1.08c-0.604,0.316-1.209,0.64-1.826,0.938c-0.632,0.264-1.253,0.561-1.897,0.799c-0.65,0.225-1.289,0.49-1.963,0.647
		l-1.002,0.268l-1.02,0.201c-0.678,0.147-1.375,0.199-2.065,0.279c-0.696,0.04-1.394,0.072-2.093,0.025
		c-0.699-0.01-1.396-0.114-2.088-0.217c-0.692-0.117-1.371-0.295-2.044-0.494c-0.667-0.219-1.326-0.461-1.958-0.766
		c-1.269-0.596-2.458-1.347-3.547-2.215c-1.095-0.861-2.072-1.861-2.942-2.937c-0.878-1.075-1.624-2.234-2.241-3.492l-0.121-0.246
		l0.23-0.105l1.847-0.842c0.622-0.264,1.213-0.595,1.844-0.833l1.922-0.641l0.956-0.333c0.322-0.099,0.659-0.146,0.988-0.222
		l1.982-0.444c0.669-0.096,1.35-0.132,2.028-0.201c0.339-0.021,0.68-0.082,1.021-0.07l1.023,0.057
		c0.68,0.057,1.378,0.022,2.043,0.21c0.667,0.16,1.355,0.254,2.004,0.48c0.644,0.241,1.291,0.479,1.924,0.744l1.81,0.98l1.695,1.158
		c0.53,0.43,1.047,0.878,1.55,1.337c0.467,0.497,0.975,0.952,1.403,1.48c0.453,0.506,0.864,1.046,1.25,1.603
		c0.389,0.553,0.754,1.127,1.061,1.728L47.049,26.19z"/>
</g>
<g>
	<path d="M53.864,25.993c0.105-0.339,0.245-0.669,0.389-0.994c0.154-0.32,0.289-0.654,0.473-0.96
		c0.351-0.621,0.726-1.234,1.156-1.811c0.227-0.28,0.431-0.579,0.685-0.838c0.248-0.265,0.482-0.541,0.757-0.781
		c0.277-0.238,0.543-0.489,0.83-0.715c0.308-0.202,0.61-0.412,0.923-0.604c0.322-0.177,0.669-0.317,1.008-0.459
		c0.328-0.167,0.712-0.201,1.063-0.301c0.18-0.037,0.354-0.095,0.537-0.113l0.551-0.026c0.366-0.012,0.728-0.057,1.087,0.02
		l1.071,0.139c0.345,0.103,0.685,0.214,1.032,0.304c0.356,0.07,0.673,0.237,0.995,0.392c0.322,0.156,0.647,0.306,0.979,0.448
		l0.114,0.048l-0.012,0.155c-0.128,1.629-0.446,3.24-1.108,4.77c-0.172,0.379-0.364,0.75-0.575,1.113
		c-0.22,0.36-0.46,0.709-0.727,1.043c-0.274,0.329-0.574,0.64-0.904,0.925c-0.342,0.272-0.71,0.513-1.101,0.717
		c-0.203,0.087-0.402,0.183-0.608,0.26l-0.637,0.178c-0.433,0.079-0.865,0.137-1.299,0.13c-0.431-0.011-0.861-0.052-1.273-0.142
		c-0.418-0.077-0.82-0.192-1.213-0.331c-0.794-0.257-1.517-0.661-2.218-1.07c-0.695-0.426-1.34-0.918-1.959-1.433l-0.029-0.023
		L53.864,25.993z M53.982,25.996l1.022,0.524l1.077,0.502c0.363,0.153,0.73,0.294,1.095,0.433c0.378,0.099,0.736,0.254,1.112,0.332
		c0.372,0.099,0.745,0.174,1.121,0.211c0.373,0.052,0.748,0.055,1.114,0.034c0.368-0.008,0.726-0.071,1.079-0.147l0.514-0.163
		l0.493-0.215c0.318-0.165,0.622-0.359,0.908-0.585c0.285-0.228,0.554-0.479,0.806-0.754c0.245-0.281,0.473-0.58,0.685-0.895
		c0.205-0.32,0.396-0.65,0.571-0.993c0.36-0.681,0.642-1.409,0.899-2.149c0.257-0.738,0.468-1.509,0.598-2.276l0.103,0.204
		c-0.297-0.172-0.601-0.336-0.908-0.494c-0.306-0.162-0.607-0.337-0.945-0.416c-0.327-0.107-0.662-0.193-0.993-0.287
		c-0.34-0.047-0.687-0.043-1.026-0.066c-0.342-0.047-0.679,0.055-1.012,0.105l-0.498,0.087c-0.163,0.038-0.318,0.114-0.478,0.168
		c-0.31,0.134-0.641,0.196-0.924,0.391c-0.286,0.178-0.593,0.309-0.873,0.492c-0.271,0.199-0.552,0.381-0.828,0.572l-0.784,0.643
		c-0.265,0.211-0.486,0.476-0.74,0.703c-0.256,0.227-0.469,0.498-0.703,0.749c-0.467,0.505-0.904,1.044-1.313,1.605
		C54.746,24.856,54.352,25.416,53.982,25.996z"/>
</g>
</svg>
