<?xml version="1.0" encoding="utf-8"?>
<!-- Generator: Adobe Illustrator 16.0.0, SVG Export Plug-In . SVG Version: 6.00 Build 0)  -->
<!DOCTYPE svg PUBLIC "-//W3C//DTD SVG 1.1//EN" "http://www.w3.org/Graphics/SVG/1.1/DTD/svg11.dtd">
<svg version="1.1" id="Calque_1" xmlns="http://www.w3.org/2000/svg" xmlns:xlink="http://www.w3.org/1999/xlink" x="0px" y="0px"
	 width="80px" height="50px" viewBox="0 0 80 50" enable-background="new 0 0 80 50" xml:space="preserve">
<g>
	<path d="M72.393,20.729C68.825-1.918,55.951-0.058,51.142,3.511c-4.808,3.568-15.977,3.568-20.785,0
		C25.548-0.058,12.673-1.918,9.105,20.729C5.538,43.376,8.33,49.735,14.38,49.735s10.392-11.479,16.287-11.479
		c5.895,0,10.082-0.31,10.082-0.31s4.188,0.31,10.083,0.31s10.237,11.479,16.287,11.479C73.167,49.735,75.961,43.376,72.393,20.729z
		"/>
	<path d="M67.964,48.493c-6.243,0-10.727-11.847-16.808-11.847c-6.085,0-10.407-0.32-10.407-0.32s-4.322,0.32-10.405,0.32
		c-6.084,0-10.566,11.847-16.81,11.847c-1.667,0-3.095-0.47-4.221-1.601c1.188,2.042,2.921,2.843,5.067,2.843
		c6.05,0,10.392-11.479,16.287-11.479c5.895,0,10.082-0.31,10.082-0.31s4.188,0.31,10.083,0.31s10.237,11.479,16.287,11.479
		c2.145,0,3.878-0.801,5.067-2.843C71.058,48.023,69.632,48.493,67.964,48.493z"/>
	<path d="M29.423,4.3c5.24,3.888,17.412,3.888,22.652,0c2.268-1.682,6.182-3.015,10.207-1.987c-4.28-1.952-8.727-0.592-11.141,1.198
		c-4.808,3.568-15.977,3.568-20.785,0c-2.414-1.791-6.86-3.15-11.141-1.198C23.242,1.285,27.156,2.618,29.423,4.3z"/>
	<g>
		<circle fill="#FFFFFF" cx="20.59" cy="14.317" r="4.757"/>
		<circle cx="20.59" cy="10.388" r="0.408"/>
		<circle cx="20.59" cy="18.356" r="0.408"/>
		<circle cx="24.575" cy="14.372" r="0.408"/>
		<circle cx="16.606" cy="14.372" r="0.408"/>
	</g>
	<g>
		<g>
			<circle fill="#FFFFFF" cx="30.644" cy="26.313" r="5.286"/>
			<path d="M31.707,29.946c0-1.42,1.151-2.571,2.571-2.571c0.389,0,0.754,0.088,1.083,0.242c0.115-0.417,0.182-0.852,0.182-1.305
				c0-0.518-0.083-1.017-0.232-1.487c-0.316,0.141-0.665,0.219-1.033,0.219c-1.42,0-2.571-1.151-2.571-2.571
				c0-0.316,0.059-0.617,0.163-0.896c-0.392-0.102-0.802-0.161-1.226-0.161c-0.423,0-0.833,0.059-1.226,0.161
				c0.104,0.279,0.164,0.581,0.164,0.896c0,1.42-1.151,2.571-2.571,2.571c-0.368,0-0.717-0.078-1.034-0.219
				c-0.149,0.471-0.231,0.97-0.231,1.487c0,0.453,0.066,0.888,0.181,1.305c0.33-0.154,0.696-0.242,1.084-0.242
				c1.419,0,2.571,1.151,2.571,2.571c0,0.387-0.087,0.753-0.242,1.083c0.416,0.115,0.852,0.182,1.304,0.182
				c0.453,0,0.889-0.066,1.304-0.182C31.794,30.7,31.707,30.333,31.707,29.946z"/>
		</g>
		<g>
			<circle fill="#FFFFFF" cx="50.913" cy="26.313" r="5.235"/>
			<path fill="#FFFFFF" d="M54.603,22.599c0.744,0.904,1.191,2.062,1.191,3.326c0,2.892-2.345,5.235-5.236,5.235
				c-1.439,0-2.74-0.581-3.688-1.521c0.958,1.166,2.414,1.91,4.043,1.91c2.892,0,5.234-2.344,5.234-5.235
				C56.147,24.861,55.557,23.548,54.603,22.599z"/>
			<circle cx="50.913" cy="21.989" r="0.449"/>
			<circle cx="50.913" cy="30.759" r="0.449"/>
			<circle cx="55.298" cy="26.374" r="0.449"/>
			<circle cx="46.527" cy="26.374" r="0.449"/>
		</g>
	</g>
	<circle fill="#E6E7E8" cx="40.75" cy="15.008" r="2.94"/>
	<g>
		<circle fill="#BCBEC0" cx="32.966" cy="15.61" r="1.706"/>
		<circle fill="#BCBEC0" cx="48.533" cy="15.61" r="1.706"/>
	</g>
	<circle fill="#FFFFFF" cx="55.608" cy="14.704" r="2.319"/>
	<circle fill="#FFFFFF" cx="65.972" cy="14.704" r="2.319"/>
	<circle fill="#FFFFFF" cx="60.791" cy="9.522" r="2.318"/>
	<circle fill="#FFFFFF" cx="60.791" cy="19.885" r="2.319"/>
</g>
</svg>
