<?xml version="1.0" encoding="utf-8"?>
<!-- Generator: Adobe Illustrator 16.0.0, SVG Export Plug-In . SVG Version: 6.00 Build 0)  -->
<!DOCTYPE svg PUBLIC "-//W3C//DTD SVG 1.1//EN" "http://www.w3.org/Graphics/SVG/1.1/DTD/svg11.dtd">
<svg version="1.1" id="Calque_1" xmlns="http://www.w3.org/2000/svg" xmlns:xlink="http://www.w3.org/1999/xlink" x="0px" y="0px"
	 width="80px" height="50px" viewBox="0 0 80 50" enable-background="new 0 0 80 50" xml:space="preserve">
<g id="g578" transform="scale(16.66667,16.66667)">
	<rect id="rect124" x="0.048" y="0.186" width="4.698" height="2.473"/>
	<g id="g584">
		<path id="path146" fill="#FFFFFF" d="M0.048,0.183V0.46l4.179,2.202h0.526V2.385L0.574,0.183H0.048z M4.749,0.179v0.278
			L0.573,2.67H0.048V2.391l4.176-2.212H4.749z"/>
		<path id="path136" fill="#FFFFFF" d="M2.007,0.183v2.493H2.79V0.183H2.007z M0.048,1.01v0.824h4.702V1.01H0.048z"/>
		<path id="path141" d="M0.048,1.175V1.67h4.698V1.175H0.048z M2.162,0.186v2.473h0.47V0.186H2.162z"/>
		<path id="path150" d="M0.048,2.659l1.566-0.824h0.35L0.398,2.659H0.048z M0.048,0.186L1.614,1.01h-0.35L0.048,0.37V0.186z
			 M2.83,1.01l1.566-0.824h0.35L3.18,1.01H2.83z M4.746,2.659L3.18,1.835h0.35l1.216,0.64V2.659z"/>
	</g>
</g>
</svg>
