<?xml version="1.0" encoding="utf-8"?>
<!-- Generator: Adobe Illustrator 16.0.0, SVG Export Plug-In . SVG Version: 6.00 Build 0)  -->
<!DOCTYPE svg PUBLIC "-//W3C//DTD SVG 1.1//EN" "http://www.w3.org/Graphics/SVG/1.1/DTD/svg11.dtd">
<svg version="1.1" id="Calque_1" xmlns="http://www.w3.org/2000/svg" xmlns:xlink="http://www.w3.org/1999/xlink" x="0px" y="0px"
	 width="80px" height="50px" viewBox="0 0 80 50" enable-background="new 0 0 80 50" xml:space="preserve">
<g>
	<g>
		<path d="M24.277,43.786L20.03,7.498l-0.792,0.093l4.093,34.953c-1.296-0.878-3.503-0.692-5.419,0.588
			c-2.304,1.54-3.314,4.081-2.257,5.657c1.063,1.585,3.79,1.618,6.094,0.078C23.79,47.502,24.816,45.359,24.277,43.786z"/>
		<path d="M58.907,36.768L54.664,0.482l-0.791,0.093l4.089,34.958c-1.3-0.882-3.507-0.691-5.423,0.588
			c-2.305,1.539-3.311,4.071-2.256,5.649c1.062,1.588,3.79,1.629,6.096,0.081C58.418,40.491,59.438,38.346,58.907,36.768z"/>
		<path d="M34.855,27.657l-2.559-21.75L31.513,6l2.39,20.415c-1.291-0.881-3.5-0.684-5.416,0.594
			c-2.306,1.539-3.316,4.068-2.256,5.65c1.055,1.587,3.781,1.624,6.087,0.08C34.363,31.374,35.386,29.228,34.855,27.657z"/>
		<path d="M47.327,21.452L45.263,3.859l-0.791,0.092l1.911,16.261c-1.298-0.878-3.504-0.688-5.42,0.594
			c-2.302,1.54-3.317,4.066-2.254,5.654c1.053,1.582,3.783,1.617,6.091,0.077C46.841,25.171,47.861,23.028,47.327,21.452z"/>
		<g>
			<polygon points="19.324,7.625 54.051,0.5 54.57,3.06 19.851,10.186 19.324,7.625 			"/>
		</g>
		<g>
			<polygon points="19.761,13.009 32.73,10.143 33.301,12.698 20.324,15.561 19.761,13.009 			"/>
		</g>
		<g>
			<polygon points="13.772,47.848 27.736,43.478 28.049,44.475 14.084,48.853 13.772,47.848 			"/>
		</g>
	</g>
</g>
</svg>
